<svg width="800" height="800" viewBox="0 0 800 800" fill="none" xmlns="http://www.w3.org/2000/svg">
<path d="M567.188 275L384.375 725H458.187L496.453 634.375H637.922L676.188 725H750L567.188 275ZM525.484 565.625L567.188 437.266L608.891 565.625H525.484Z" fill="white"/>
<path d="M425 500C424.609 499.703 392.828 475.359 354.031 433.328C415.875 349.516 450.906 254.25 465.203 209.375H550V140.625H334.375V75H265.625V140.625H50V209.375H392.578C377.703 251.484 350.313 317.969 308.531 378.688C257.469 310.813 234.875 260.125 234.578 259.594L223.438 237.5L164.062 271.875L174.797 293.531C176.188 295.969 201.656 352.75 260.281 428.797C261.719 430.687 263.172 432.531 264.625 434.375C186.937 523.219 125.328 557.953 124.531 558.547L100 575L135.938 631.25L166.094 613.328C169.531 610.719 230.672 575.828 309.844 487.109C348.156 528.172 377.375 550.906 379.063 552.219L398.438 565.625L425 500Z" fill="white"/>
</svg>
